<svg id="Layer_2" data-name="Layer 2" xmlns="http://www.w3.org/2000/svg" viewBox="0 0 900 900"><title>PRESENTATION_LoveSVG</title><path d="M259.434,216.307a33.05,33.05,0,0,0-5.87-6.741c-3.756-3.687-7.467-7.434-9.871-12.2a28,28,0,0,1-3.067-12.94,33.657,33.657,0,0,1,3.579-13.826,52.386,52.386,0,0,1,9.743-13.973,54.7,54.7,0,0,1,14.086-10.634,32.7,32.7,0,0,1,4.524-2.08,21.23,21.23,0,0,1,4.791-1.007c4.678-.413,7.471,1.506,8.243,5.451a12.86,12.86,0,0,1,.28,2.584c-.028,4.043.046,8.053.139,12.036l.355,12.042a43.36,43.36,0,0,1-1.828,13.611,61.638,61.638,0,0,1-2.359,6.5,51.586,51.586,0,0,1-3.284,6.269,3.243,3.243,0,0,0-.547,1.833c.561-.348,1.135-.678,1.682-1.047l4.8-3.249c1.607-1.07,3.173-2.2,4.846-3.175l9.907-6a49.3,49.3,0,0,0,7.134-4.867q1.654-1.369,3.194-2.9c1.025-1.02,2.014-2.095,3.02-3.132.423-.452.817-.933,1.269-1.359a2.782,2.782,0,0,1,3.136-.872,2.576,2.576,0,0,1,1.793,2.8,15.515,15.515,0,0,1-1.31,4.394,32.439,32.439,0,0,1-1.959,3.417c-.7,1.116-1.432,2.216-2.225,3.257a49.282,49.282,0,0,1-5.254,5.833c-.973.955-2.024,1.781-3.039,2.672s-2.076,1.709-3.156,2.5c-2.16,1.587-4.421,3.034-6.712,4.449-1.592.986-3.067,2.146-4.793,3.348a7.706,7.706,0,0,0,1.42.161,39.733,39.733,0,0,1,13.947,1.319,43.8,43.8,0,0,1,6.46,2.3q1.566.7,3.083,1.517c1.019.559,2.035,1.178,3.026,1.823a220.186,220.186,0,0,1,22.923,17.435,10.087,10.087,0,0,1,3.5,5.239,8.071,8.071,0,0,1,.143,2.816,12.915,12.915,0,0,1-.753,3.117,24.238,24.238,0,0,1-9.268,11.538,21.537,21.537,0,0,1-3.254,1.761q-.852.37-1.739.669-.857.344-1.744.612a21.175,21.175,0,0,1-7.49.85A28.7,28.7,0,0,1,311,257.974a36.3,36.3,0,0,1-9.154-6.112c-3.256-2.916-6.262-6.161-9.3-9.345-3.39-3.552-6.59-7.289-10.034-10.794s-7.285-6.7-12.258-7.757a3.01,3.01,0,0,0-2.824.533c-1.88,1.485-3.732,3-5.532,4.564a33.406,33.406,0,0,0-2.593,2.454q-1.25,1.274-2.446,2.592c-1.594,1.758-3.11,3.58-4.521,5.478a45.569,45.569,0,0,0-3.695,6.13,40.047,40.047,0,0,0-2.945,7.272,25,25,0,0,0-.776,7.782c.259,4.391,1.575,8.348,4.9,11.506a11.265,11.265,0,0,0,11.206,3.05,22.3,22.3,0,0,0,7.869-4.211,39.677,39.677,0,0,0,6.43-6.216,29.016,29.016,0,0,0,4.882-7.551,44.445,44.445,0,0,0,2.06-6.476,12.332,12.332,0,0,0,.106-4.32c-.258-2.152-1.232-2.915-3.389-2.719a12.94,12.94,0,0,0-5.184,1.586,20.438,20.438,0,0,0-4.194,3.379,24.564,24.564,0,0,1-3.248,2.831,2.979,2.979,0,0,1-3.892-.248c-.966-.877-1.2-1.9-.268-3.357A26.184,26.184,0,0,1,268,241.407a18.275,18.275,0,0,1,1.767-1.223,16.316,16.316,0,0,1,1.979-.926,17.217,17.217,0,0,1,4.431-1.08c6.922-.764,11.781,4.11,12.094,10.983a21.429,21.429,0,0,1-.512,5.819,28.019,28.019,0,0,1-1.891,5.281,35.389,35.389,0,0,1-3.16,5.465,48.43,48.43,0,0,1-3.883,4.649,31.273,31.273,0,0,1-4.564,3.982,58.445,58.445,0,0,1-5.369,3.286,26.123,26.123,0,0,1-6.24,2.275,21.551,21.551,0,0,1-15.232-2.107,22.166,22.166,0,0,1-9.545-9.564,28.249,28.249,0,0,1-2.029-5.9,30.384,30.384,0,0,1-.669-6.15c-.169-9.956,3.492-19.136,10.376-26.815a142.743,142.743,0,0,1,12-11.45Z" fill="#a9c9a4"/><path d="M380.2,225.343a35.778,35.778,0,0,1-5.7,1.191,32.867,32.867,0,0,1-5.857.425,29.308,29.308,0,0,1-3.813-.305q-.939-.138-1.864-.334c-.612-.119-1.208-.23-1.807-.376a31.562,31.562,0,0,1-7-2.609,42.705,42.705,0,0,1-6.692-4.277,61.716,61.716,0,0,1-6.355-5.636,48.993,48.993,0,0,1-9.355-12.438,45.729,45.729,0,0,1-4.968-19.56c-.044-2.162.234-2.522,2.5-2.677a16.077,16.077,0,0,1,2.613-.036,34.887,34.887,0,0,0,6.787-.04,32.275,32.275,0,0,0,3.213-.5c1.055-.218,2.126-.41,3.165-.693a36.585,36.585,0,0,0,6.113-2.212c2-.9,3.928-2.1,5.924-3.211q3.1-1.822,6.316-3.513,1.608-.846,3.24-1.656c.544-.268,1.087-.545,1.638-.8l1.672-.7a49.463,49.463,0,0,1,12.545-3.332,64.505,64.505,0,0,1,12.893.176,74.8,74.8,0,0,1,12.188,2.74A58.108,58.108,0,0,1,418.9,169.8a39.03,39.03,0,0,1,7.44,5.254c3.146,2.919,3.352,5.8,1.458,9.542a32.188,32.188,0,0,1-5.711,7.835q-2.634,2.834-5.327,5.389c-1.779,1.806-3.57,3.556-5.378,5.213s-3.632,3.243-5.467,4.766q-2.715,2.457-5.463,4.723c-4.371,3.453-8.611,7.043-13.4,9.411Z" fill="#ba9bc9"/><path d="M354.161,117.006q6-1.561,12.036-2.9l3.014-.648c1.012-.183,2.03-.336,3.045-.5q3.048-.471,6.094-.868a138.383,138.383,0,0,1,24.362-1.056,67.2,67.2,0,0,1,9.051,1.386,19.239,19.239,0,0,1,4.325,1.491c3.867,1.814,4.921,4.729,3.23,8.373a23.585,23.585,0,0,1-2.311,3.888,101.27,101.27,0,0,0-6.633,10.477c-.983,1.791-1.918,3.55-2.8,5.4s-1.707,3.725-2.5,5.6a76.7,76.7,0,0,1-3.544,7.168c-1.576,2.855-2.43,3.228-5.69,2.764a68.952,68.952,0,0,0-8.2-.313q-2.064.039-4.137.182a38.5,38.5,0,0,0-4.138.446,52.371,52.371,0,0,0-9.935,2.723q-1.2.448-2.386.937c-.786.336-1.552.73-2.322,1.107-1.536.766-3.054,1.565-4.564,2.376l-5.427,2.905c-1.81.954-3.567,2.041-5.378,2.988a25.4,25.4,0,0,1-5.128,2.08,36.193,36.193,0,0,1-5.229.978,35.724,35.724,0,0,1-10.8-.561,8.153,8.153,0,0,1-3.116-1.3c-6.658-4.7-11.07-10.523-10.052-19.347a31.559,31.559,0,0,1,6.348-14.914q1.143-1.533,2.391-2.984c.839-.95,1.73-1.827,2.644-2.7a61.409,61.409,0,0,1,5.859-4.895,53.594,53.594,0,0,1,6.549-4.213q3.471-1.833,7.215-3.369C348.673,118.647,351.422,117.811,354.161,117.006Z" fill="#ba9bc9"/><path d="M433.732,152.113c.1,3.32-.385,5.7-2.028,7.512a83.136,83.136,0,0,1-6.155,5.853c-1.176,1.11-2.627.888-4,.313l-7.113-2.926c-1.2-.483-2.408-.986-3.618-1.451l-3.636-1.295c-1.681-.6-2.131-1.562-1.43-3.135,1.395-3.1,2.828-6.306,4.352-9.332s3.107-6.086,4.766-9.128a68.641,68.641,0,0,1,3.909-6.236c1.409-2.008,3.022-2.163,4.678-.32a10.093,10.093,0,0,1,1.233,1.687c2.517,4.325,5.016,8.627,7.195,13.042A36.411,36.411,0,0,1,433.732,152.113Z" fill="#ba9bc9"/><path d="M416.515,204.473c.524-.619,1.051-1.241,1.592-1.809,3.035-3.282,6.335-6.434,9.408-9.995a31.218,31.218,0,0,0,2.409-3.258,40.257,40.257,0,0,0,2.029-3.606,11.1,11.1,0,0,0-1.228-12.529,14.55,14.55,0,0,1-1.044-1.42c-.818-1.38-.778-2.295.3-3.413a22.237,22.237,0,0,1,2.612-2.306c1.842-1.4,3.477-1.251,5.06.5a17.9,17.9,0,0,1,4.452,12.783,18.544,18.544,0,0,1-1.311,6.611,21.148,21.148,0,0,1-3.4,5.7,33.266,33.266,0,0,1-4.659,4.662,44.13,44.13,0,0,1-5.229,3.554c-3.1,1.8-6.325,3.219-9.442,4.751a7.66,7.66,0,0,1-1.219.325Z" fill="#ba9bc9"/><path d="M426.786,127.318a20.042,20.042,0,0,1,3.024.154c4.318.963,8.425,2.158,12.029,4.609,6.494,4.264,8.663,10.416,6.727,17.417a32.077,32.077,0,0,1-5.38,10.311c-.734,1-1.629,1.714-3.013,1.2a2.984,2.984,0,0,1-2.122-3.324c1.419-6.271-.767-11.681-3.716-16.957-2.276-4.092-4.753-8.119-7.251-12.17A6.121,6.121,0,0,1,426.786,127.318Z" fill="#ba9bc9"/><path d="M155.289,454.333a33.1,33.1,0,0,0-8.932.377c-5.231.633-10.479,1.192-15.689.093a27.627,27.627,0,0,1-11.95-5.675,31.082,31.082,0,0,1-4.834-4.986,35.321,35.321,0,0,1-3.8-6.414,55.006,55.006,0,0,1-4.4-33.931,26.218,26.218,0,0,1,3.4-9.209,8.286,8.286,0,0,1,4.251-3.7,6.491,6.491,0,0,1,5.068.641,13.6,13.6,0,0,1,2.209,1.392c6.374,5.094,12.9,9.79,19.2,14.63a45.621,45.621,0,0,1,5.139,4.627,44.755,44.755,0,0,1,4.424,5.287,46.2,46.2,0,0,1,3.568,5.891c1.078,2.062,1.885,4.214,2.814,6.47a3.372,3.372,0,0,0,1.135,1.572c.059-.657.141-1.311.174-1.969.257-3.855.724-7.7,1.078-11.541.211-1.92.339-3.846.626-5.756l.882-5.725a45.848,45.848,0,0,0,.5-8.632,50.882,50.882,0,0,0-.714-8.6c-.1-.615-.246-1.225-.309-1.847-.126-1.225.046-2.365,1.2-3.008a2.566,2.566,0,0,1,3.3.341,16.089,16.089,0,0,1,2.689,3.777,35.059,35.059,0,0,1,2.607,7.434c.3,1.265.519,2.54.712,3.828.241,1.3.432,2.6.582,3.914.646,5.43-.086,10.72-.465,16.1-.173,1.863-.289,3.733-.448,5.83a8.039,8.039,0,0,0,1.033-1.008,42.721,42.721,0,0,1,9.652-10.093,46.443,46.443,0,0,1,12.354-6.306c4.591-1.537,9.106-2.874,13.827-4.021s9.425-2.14,14.117-3.03c5.025-.945,8.185.775,10.483,4.69a21.357,21.357,0,0,1,1.615,3.432,22.281,22.281,0,0,1,1.16,3.615,21.461,21.461,0,0,1,.387,7.382,22.6,22.6,0,0,1-1.712,7.187,26.034,26.034,0,0,1-4.051,6.394c-4.487,5.173-10.968,8.293-18.692,9.595-4.291.726-8.685,1.051-13.054,1.434-4.876.433-9.789.6-14.66,1.1-4.9.514-9.668,1.514-13.68,4.738a3.062,3.062,0,0,0-1.383,2.54,76.181,76.181,0,0,0,.905,14.257q.264,1.76.6,3.5l.364,1.735c.143.575.319,1.146.488,1.716a59.415,59.415,0,0,0,2.48,6.714c.54,1.221,1.116,2.41,1.742,3.556a22.144,22.144,0,0,0,2.112,3.281,25.969,25.969,0,0,0,5.584,5.465c3.573,2.54,7.471,3.982,12.013,3.353a11.356,11.356,0,0,0,9.41-6.856,20.325,20.325,0,0,0,1.585-8.762,37.21,37.21,0,0,0-3.636-17.43,33.171,33.171,0,0,0-3.8-5.654,14.094,14.094,0,0,0-3.336-2.78c-1.823-1.143-3.03-.858-4.251.952-2.085,3.19-2.313,6.757-1.93,10.425a24.808,24.808,0,0,1,.133,4.309,2.828,2.828,0,0,1-2.517,2.872c-1.285.207-2.256-.251-2.878-1.876a25.167,25.167,0,0,1-1.475-8.663,15.313,15.313,0,0,1,2.515-8.4c3.81-5.889,10.663-6.647,16.16-2.594a20.93,20.93,0,0,1,4.159,4.042,22.871,22.871,0,0,1,3.054,4.769,37.371,37.371,0,0,1,2.958,24.1,26.346,26.346,0,0,1-2.159,6.295,20.953,20.953,0,0,1-2.144,3.549,19.465,19.465,0,0,1-2.591,2.921,22.529,22.529,0,0,1-6.389,4.106,22.138,22.138,0,0,1-13.423,1.494,28.087,28.087,0,0,1-11.129-5.4,39.265,39.265,0,0,1-9.577-10.886,45.287,45.287,0,0,1-4.93-13.961c-.39-2.729-.652-5.483-.878-8.242l-.322-4.14-.162-2.071-.075-2.073Z" fill="#a9c9a4"/><path d="M237.606,365.537a30.407,30.407,0,0,1-2.517,5.238q-.753,1.248-1.631,2.441l-1.793,2.368a28.459,28.459,0,0,1-5.377,5.242,38.942,38.942,0,0,1-6.477,3.823,49.255,49.255,0,0,1-15.835,4.034,49.782,49.782,0,0,1-15.638-.455,45,45,0,0,1-18.277-8.282c-1.7-1.309-1.766-1.742-.537-3.622a15.635,15.635,0,0,1,1.552-2.077,39.122,39.122,0,0,0,7.272-11.056,54.414,54.414,0,0,0,3.279-12.786c.306-2.381.614-4.793,1.085-7.165q.779-3.531,1.721-7.049a46.954,46.954,0,0,1,2.122-6.2,53.976,53.976,0,0,1,3.116-5.672,60.075,60.075,0,0,1,3.719-5.253,50.546,50.546,0,0,1,4.437-4.725q2.284-2.188,4.677-4.173,1.2-.99,2.417-1.928c.848-.605,1.714-1.187,2.583-1.754a76.692,76.692,0,0,1,10.774-5.864,39.257,39.257,0,0,1,8.875-2.463c4.224-.653,6.569.958,8.381,4.813a30.994,30.994,0,0,1,2.423,9.259,132.446,132.446,0,0,1,1.621,14.988q.332,3.713.466,7.323.069,1.8.093,3.587c.018,1.189,0,2.359.069,3.57a79.1,79.1,0,0,1-.9,16.39c-.237,1.258-.53,2.5-.839,3.731S237.805,364.271,237.606,365.537Z" fill="#ba9bc9"/><path d="M136.77,318.4a177.561,177.561,0,0,1,11.1-22.028c2.173-3.475,4.476-6.857,6.841-10.162,1.207-1.64,2.344-3.307,3.671-4.857q1.953-2.346,3.976-4.614a73.667,73.667,0,0,1,6.59-6.3,19.206,19.206,0,0,1,3.927-2.411c3.892-1.855,6.842-.853,8.6,2.717a22.846,22.846,0,0,1,1.551,4.2c.552,2.026,1.109,3.973,1.826,5.947s1.462,3.894,2.265,5.787c1.6,3.787,3.386,7.436,5.279,10.986,1.257,2.338,2.281,4.735,3.358,7.216,1.29,3.033,1.069,3.943-1.264,6.236q-1.47,1.446-2.853,2.98a35.7,35.7,0,0,0-2.63,3.177c-1.624,2.207-3.143,4.517-4.574,6.907a40.63,40.63,0,0,0-2.385,4.6c-.639,1.594-1.2,3.216-1.695,4.854a88.408,88.408,0,0,0-2.4,9.975c-.662,4.077-1.286,8.135-2.13,12.126a26.446,26.446,0,0,1-3.968,10.033,33.854,33.854,0,0,1-3.326,4.212,41.214,41.214,0,0,1-3.867,3.875,7.925,7.925,0,0,1-2.913,1.639c-7.848,2.27-15.221,2.078-21.381-4.2a29.555,29.555,0,0,1-4.781-6.47,29.212,29.212,0,0,1-3.006-7.81,56.47,56.47,0,0,1-1.538-15.136,76.874,76.874,0,0,1,2.64-15.5C134.516,323.664,135.729,321.053,136.77,318.4Z" fill="#ba9bc9"/><path d="M213.728,278.019c2.66,1.987,4.2,3.846,4.567,6.239a80.266,80.266,0,0,1,.877,8.552c.109,1.595-1,2.572-2.332,3.274-1.125.6-2.3,1.187-3.394,1.822l-3.3,1.929-6.682,3.957c-1.549.923-2.591.67-3.363-.847-3.062-6.02-6.025-12.229-8.795-18.664a62.786,62.786,0,0,1-2.369-6.9c-.678-2.345.287-3.651,2.716-3.828a9.676,9.676,0,0,1,2.065.072c4.927.711,9.742,1.365,14.6,2.447A36.923,36.923,0,0,1,213.728,278.019Z" fill="#ba9bc9"/><path d="M244.019,324.163l-.412-2.367c-.382-2.235-.7-4.5-1.036-6.794-.254-2.241-.533-4.508-.929-6.8a31.459,31.459,0,0,0-2.674-7.794,11.1,11.1,0,0,0-10.56-6.847,14,14,0,0,1-1.738-.055,2.437,2.437,0,0,1-2.5-2.368,20.8,20.8,0,0,1-.229-3.514c.091-2.287,1.252-3.454,3.634-3.583a18.04,18.04,0,0,1,12.782,4.5A19.094,19.094,0,0,1,247,299.866a36.207,36.207,0,0,1,.305,12.873c-.287,1.76-.724,3.448-1.089,5.177l-1.042,5.186a5.176,5.176,0,0,1-.518,1.149Z" fill="#ba9bc9"/><path d="M190.015,268a15.649,15.649,0,0,1,1.966-2.3,38.981,38.981,0,0,1,11.165-6.5,14.741,14.741,0,0,1,17.8,5.592,33.566,33.566,0,0,1,4.712,10.642c.347,1.213.366,2.372-.867,3.156a3.027,3.027,0,0,1-3.946-.43c-3.988-5-9.614-6.684-15.62-7.7-4.644-.79-9.411-1.413-14.057-1.932A5.973,5.973,0,0,1,190.015,268Z" fill="#ba9bc9"/><path d="M276.414,684.224a33.054,33.054,0,0,0-5.274,7.216c-2.76,4.474-5.59,8.919-9.72,12.333q-10.627,8.8-26.225,5.43a61.112,61.112,0,0,1-15.78-6.406,63.156,63.156,0,0,1-13.478-11.377,26.287,26.287,0,0,1-5.015-8.446c-1.477-4.428-.239-7.562,3.448-9.2a13.087,13.087,0,0,1,2.467-.857c7.934-1.782,15.651-3.925,23.342-5.8A44.83,44.83,0,0,1,243.93,665.8a45.4,45.4,0,0,1,6.789.935,60.889,60.889,0,0,1,6.88,1.767,3.3,3.3,0,0,0,1.923.111c-.47-.463-.925-.942-1.412-1.386-1.42-1.312-2.881-2.576-4.266-3.923l-4.106-4.092c-2.718-2.744-5.518-5.4-8.044-8.328a43.684,43.684,0,0,0-6.393-5.813c-1.169-.842-2.319-1.688-3.5-2.5s-2.417-1.564-3.687-2.282c-.541-.307-1.105-.578-1.627-.918a2.756,2.756,0,0,1-1.584-2.83,2.568,2.568,0,0,1,2.328-2.368,15.881,15.881,0,0,1,4.613.268,34.659,34.659,0,0,1,7.4,2.629c1.149.58,2.336,1.154,3.493,1.781s2.285,1.3,3.4,2.011a47.289,47.289,0,0,1,6.355,4.958c2.056,1.724,4,3.578,5.914,5.468,1.34,1.307,2.693,2.6,4.243,4.023a10.143,10.143,0,0,0-.148-1.43,44.689,44.689,0,0,1-1.8-13.9,37.414,37.414,0,0,1,.84-6.84,48.5,48.5,0,0,1,1.929-6.729c1.66-4.543,3.51-8.976,5.486-13.315s4.208-8.7,6.434-12.923c2.406-4.528,5.717-5.918,10.195-5.244.636.094,1.254.224,1.876.367s1.261.287,1.874.468a21.879,21.879,0,0,1,3.525,1.38,21.521,21.521,0,0,1,3.179,1.933q.747.548,1.443,1.158c.475.395.959.784,1.41,1.206a21.428,21.428,0,0,1,4.493,5.878c.29.554.554,1.128.8,1.709q.4.838.724,1.719a20.876,20.876,0,0,1,.984,3.671,27.415,27.415,0,0,1-.269,10.312,35.674,35.674,0,0,1-3.895,10.23c-2.115,3.81-4.611,7.456-7.04,11.113-2.71,4.087-5.645,8.033-8.3,12.161-2.662,4.157-4.866,8.521-4.882,13.712a3,3,0,0,0,1.113,2.678,106.287,106.287,0,0,0,11.718,8.177,60.031,60.031,0,0,0,13.143,5.438c5.243,1.224,10.394,1.775,15.506.289,4.248-1.276,7.83-3.473,10.171-7.422s2.449-7.8.447-11.523a21.046,21.046,0,0,0-5.811-6.8c-1.193-.932-2.412-1.8-3.668-2.6s-2.481-1.634-3.793-2.314a28.526,28.526,0,0,0-8.51-2.98,32.089,32.089,0,0,0-6.71-.662,12.664,12.664,0,0,0-4.265.895c-2.053.745-2.579,1.86-1.894,3.9a13.517,13.517,0,0,0,2.724,4.662,16.372,16.372,0,0,0,4.169,3.419,24.412,24.412,0,0,1,3.518,2.479,2.916,2.916,0,0,1,.644,3.812c-.641,1.136-1.6,1.6-3.233,1.037a31.747,31.747,0,0,1-4.144-1.735q-.984-.5-1.9-1.081a19.777,19.777,0,0,1-1.707-1.333,17.09,17.09,0,0,1-4.973-7.239,10.357,10.357,0,0,1,.689-8.914,11.856,11.856,0,0,1,7.324-5.284,21.7,21.7,0,0,1,11.4-.173,59.041,59.041,0,0,1,6.016,1.88,31.139,31.139,0,0,1,5.4,2.748,51.158,51.158,0,0,1,4.885,3.567,35.677,35.677,0,0,1,4.391,4.5,33.619,33.619,0,0,1,3.6,5.576c5.112,10.012.317,22.041-5.877,26.756a29.712,29.712,0,0,1-11.145,5.3,36.056,36.056,0,0,1-14.456.662,38.659,38.659,0,0,1-7.129-1.7,49.848,49.848,0,0,1-6.855-3.157c-1.208-.668-2.4-1.366-3.585-2.081-.59-.361-1.185-.714-1.764-1.093l-1.7-1.185-6.791-4.784C277.8,685.211,277.164,684.757,276.414,684.224Z" fill="#a9c9a4"/><path d="M258.36,564.375a30.535,30.535,0,0,1,2.524,5.251,58.069,58.069,0,0,1,1.651,5.674,28.661,28.661,0,0,1,.737,7.5,42.076,42.076,0,0,1-1.019,7.44,49.731,49.731,0,0,1-25.284,32.442,42.549,42.549,0,0,1-9.441,3.541c-2.077.507-2.458.29-3.153-1.848a15.793,15.793,0,0,1-.648-2.514,43.32,43.32,0,0,0-1.581-6.583,33.107,33.107,0,0,0-2.536-5.99,38.763,38.763,0,0,0-3.6-5.408,46,46,0,0,0-4.358-5.121c-1.677-1.72-3.34-3.483-4.937-5.308q-2.274-2.81-4.436-5.739a49.814,49.814,0,0,1-3.533-5.519,52.7,52.7,0,0,1-2.5-5.97,60.223,60.223,0,0,1-1.79-6.183,27.551,27.551,0,0,1-.576-3.181q-.219-1.61-.367-3.23-.288-3.152-.349-6.261-.03-1.553,0-3.092c.026-1.029.132-2.079.224-3.109a76.731,76.731,0,0,1,2.133-12.086,37.808,37.808,0,0,1,3.594-8.471c2.126-3.712,4.847-4.543,8.986-3.56a31.763,31.763,0,0,1,8.758,3.862,137.017,137.017,0,0,1,12.731,8.053q3.108,2.052,6.013,4.195,1.455,1.069,2.862,2.16c.93.731,1.857,1.462,2.845,2.164A79.426,79.426,0,0,1,253.575,558.4c.836.972,1.623,1.976,2.394,2.988l1.15,1.522C257.52,563.41,257.944,563.891,258.36,564.375Z" fill="#ba9bc9"/><path d="M158.676,613.931q-1.474-2.724-2.9-5.467c-.468-.918-.96-1.822-1.394-2.756l-1.271-2.818q-2.51-5.643-4.749-11.355c-1.388-3.854-2.581-7.773-3.7-11.681-.536-1.964-1.112-3.9-1.526-5.9s-.79-3.993-1.131-5.991a73.709,73.709,0,0,1-.817-9.088,17.674,17.674,0,0,1,.543-4.574c.977-4.206,3.6-5.891,7.485-5.04a22.793,22.793,0,0,1,4.248,1.406,84.84,84.84,0,0,0,11.741,4.107c3.959,1.1,7.922,1.984,11.877,2.713,2.6.478,5.139,1.158,7.746,1.861,3.176.879,3.749,1.619,4.089,4.874q.215,2.051.553,4.09a33.8,33.8,0,0,0,.858,4.031c.714,2.646,1.574,5.274,2.551,7.882A36.709,36.709,0,0,0,195,584.956c.849,1.493,1.768,2.94,2.737,4.351s1.988,2.786,3.035,4.137,2.1,2.693,3.281,3.949c2.769,3.061,5.548,6.08,8.138,9.23,5.167,5.684,6.755,12.6,7.223,20.008a7.956,7.956,0,0,1-.544,3.3c-3.134,7.56-7.889,13.2-16.619,14.1a29.373,29.373,0,0,1-8.018-.3,31.2,31.2,0,0,1-8-2.494,58.465,58.465,0,0,1-12.78-8.213A76.727,76.727,0,0,1,163.012,621.3C161.369,618.986,160.112,616.394,158.676,613.931Z" fill="#ba9bc9"/><path d="M174.984,528.569c3.226-.847,5.59-.88,7.751.307a79.83,79.83,0,0,1,7.223,4.644c1.313.909,1.385,2.385,1.1,3.866-.529,2.536-.854,5.03-1.223,7.57l-1.073,7.7c-.244,1.788-1.091,2.446-2.758,2.1-6.613-1.353-13.312-2.9-20.068-4.746a57.965,57.965,0,0,1-6.887-2.44c-2.255-.932-2.673-2.5-1.3-4.515a9.759,9.759,0,0,1,1.344-1.572c3.615-3.41,7.176-6.786,10.987-9.893A36.85,36.85,0,0,1,174.984,528.569Z" fill="#ba9bc9"/><path d="M229.957,533.594l-2.106-1.151c-1.983-1.091-3.95-2.256-5.952-3.417-1.95-1.18-3.86-2.385-5.9-3.5a31.43,31.43,0,0,0-7.751-2.762,11.111,11.111,0,0,0-11.935,4,13.853,13.853,0,0,1-1.128,1.326,2.436,2.436,0,0,1-3.408.48,23.083,23.083,0,0,1-2.9-2.007c-1.762-1.485-1.92-3.131-.54-5.071a18.087,18.087,0,0,1,11.5-7.194,19.044,19.044,0,0,1,12.972,1.861q1.5.772,2.861,1.657,1.426.862,2.726,1.83a31.207,31.207,0,0,1,4.675,4.278c1.2,1.316,2.214,2.72,3.38,4.065l3.4,4.042a5.175,5.175,0,0,1,.574,1.121Z" fill="#ba9bc9"/><path d="M152.394,540.869a20.07,20.07,0,0,1-.592-2.964,38.813,38.813,0,0,1,1.9-12.8,18.04,18.04,0,0,1,2.448-4.728,14.476,14.476,0,0,1,3.543-3.34,15.508,15.508,0,0,1,9.447-2.358,24.989,24.989,0,0,1,5.728.98,45.929,45.929,0,0,1,5.56,1.962c1.163.487,2.078,1.194,1.919,2.648a3.038,3.038,0,0,1-2.8,2.82c-6.388,0-11.219,3.352-15.761,7.423-1.762,1.573-3.5,3.191-5.222,4.836-1.7,1.637-3.351,3.29-5.027,4.955A6,6,0,0,1,152.394,540.869Z" fill="#ba9bc9"/><path d="M531.716,732.838a33.052,33.052,0,0,0,2.355,8.622c1.778,4.949,3.491,9.933,3.583,15.288a29.113,29.113,0,0,1-.654,6.715,26.583,26.583,0,0,1-2.244,6.183,34.287,34.287,0,0,1-9.239,10.989,35,35,0,0,1-3.459,2.5q-1.781,1.158-3.646,2.193a61.469,61.469,0,0,1-7.776,3.626,45.378,45.378,0,0,1-8.4,2.337,67.572,67.572,0,0,1-8.925,1.091,23.177,23.177,0,0,1-9.724-1.322c-4.383-1.65-6.059-4.588-5.038-8.48a12.984,12.984,0,0,1,.872-2.452c1.784-3.636,3.46-7.286,5.11-10.919l4.93-10.94a43.785,43.785,0,0,1,7.57-11.513q1.147-1.258,2.393-2.426,1.248-1.146,2.572-2.319a52.215,52.215,0,0,1,5.68-4.269,3.28,3.28,0,0,0,1.289-1.424c-.656.074-1.316.126-1.967.227l-5.731.883-1.432.221-1.442.153-2.883.3c-3.845.381-7.68.837-11.527,1.121a43.526,43.526,0,0,0-8.54,1.27,78.945,78.945,0,0,0-8.215,2.7c-.577.224-1.141.487-1.733.675a2.773,2.773,0,0,1-3.2-.573,2.577,2.577,0,0,1-.4-3.3,15.527,15.527,0,0,1,3.09-3.392,47.192,47.192,0,0,1,13.938-7.156,82.737,82.737,0,0,1,15.807-3.058l2.816-.343c.957-.125,1.929-.341,2.966-.515a7.632,7.632,0,0,0-1.206-.753,26.83,26.83,0,0,1-3.285-1.465q-1.6-.821-3.1-1.744a43.314,43.314,0,0,1-10.41-8.937,47.193,47.193,0,0,1-4.052-5.733c-2.515-4.159-4.823-8.4-6.981-12.673-2.16-4.307-4.159-8.523-6.074-13a10.044,10.044,0,0,1-.876-6.24,10.3,10.3,0,0,1,3.146-5.042,21.879,21.879,0,0,1,6.277-4.291,22.944,22.944,0,0,1,3.5-1.235,21.474,21.474,0,0,1,11.01-.594,20.943,20.943,0,0,1,7.087,2.427c6.055,3.473,10.459,8.831,13.434,16.067,1.659,4.034,2.952,8.26,4.3,12.442,1.5,4.669,2.759,9.425,4.333,14.074,1.59,4.675,3.627,9.124,7.678,12.387a2.892,2.892,0,0,0,2.778.759c2.331-.549,4.649-1.138,6.942-1.792q1.719-.492,3.417-1.035l1.691-.56,1.65-.673c2.189-.923,4.336-1.937,6.421-3.065q1.563-.846,3.079-1.781.756-.468,1.5-.959c.488-.349.967-.716,1.443-1.087a40.677,40.677,0,0,0,5.767-5.377,27.508,27.508,0,0,0,2.316-3.083q.522-.811.979-1.666.443-.889.817-1.825c1.646-4.115,2.157-8.284.523-12.575s-4.581-6.772-8.741-7.527a20.017,20.017,0,0,0-2.272-.261,18.393,18.393,0,0,0-2.259-.051,22.714,22.714,0,0,0-4.4.629c-5.84,1.543-11.4,3.359-16.108,7.566a35.05,35.05,0,0,0-4.69,4.841,12.612,12.612,0,0,0-1.958,3.883c-.7,2.065-.153,3.173,1.867,3.912a13.563,13.563,0,0,0,5.344.792,17.829,17.829,0,0,0,2.659-.333,19.506,19.506,0,0,0,2.6-.815,24.436,24.436,0,0,1,4.132-1.2,2.925,2.925,0,0,1,3.384,1.877c.489,1.209.255,2.243-1.2,3.17a31.57,31.57,0,0,1-3.939,2.152,16.463,16.463,0,0,1-4.13,1.343,17.126,17.126,0,0,1-8.764-.649,10.3,10.3,0,0,1-6.528-6.064,12.037,12.037,0,0,1,.421-9.059A21.58,21.58,0,0,1,527,681.734l2.58-1.875q1.293-.911,2.625-1.675a31,31,0,0,1,5.507-2.492,48.262,48.262,0,0,1,5.823-1.611,35.8,35.8,0,0,1,6.257-.621,33.009,33.009,0,0,1,6.6.65c11.02,2.242,17.452,13.482,17.285,21.261a29.657,29.657,0,0,1-2.788,12.017q-.78,1.7-1.7,3.306a25.809,25.809,0,0,1-1.986,3.055,40.493,40.493,0,0,1-4.8,5.366,41.481,41.481,0,0,1-5.763,4.534,49.759,49.759,0,0,1-6.746,3.384c-1.277.527-2.567,1.024-3.866,1.5s-2.6.958-3.936,1.318l-7.985,2.307Z" fill="#a9c9a4"/><path d="M426.744,672.147a40.852,40.852,0,0,1,11.153,3.546,33.652,33.652,0,0,1,11.524,9.542,52.01,52.01,0,0,1,7.469,14.6,48.763,48.763,0,0,1,3.021,15.263,45.822,45.822,0,0,1-4.03,19.782c-.9,1.974-1.306,2.165-3.41,1.321a16.16,16.16,0,0,1-2.368-1.1,34.808,34.808,0,0,0-6.13-2.916,47.908,47.908,0,0,0-6.267-1.666,41.907,41.907,0,0,0-13.2-.307c-4.768.373-9.628.538-14.485.451a51.516,51.516,0,0,1-12.743-2.469,25.315,25.315,0,0,1-3.007-1.168q-1.479-.655-2.921-1.388c-1.923-.975-3.8-2.045-5.617-3.193q-1.33-.839-2.616-1.716c-.849-.616-1.677-1.271-2.493-1.924q-2.445-1.968-4.7-4.079t-4.3-4.359c-1.345-1.562-2.609-3.2-3.805-4.868a39.334,39.334,0,0,1-4.42-7.99,7.23,7.23,0,0,1-.446-5.106,9.092,9.092,0,0,1,3.263-4.13,31.905,31.905,0,0,1,8.521-4.558q1.8-.7,3.575-1.329c1.183-.411,2.365-.813,3.563-1.265q3.576-1.293,7.09-2.341,1.758-.526,3.5-1l1.741-.462,1.756-.522q3.5-1.018,6.957-1.849c1.361-.329,2.714-.634,4.058-.9,1.36-.339,2.714-.65,4.06-.907a44.462,44.462,0,0,1,8.039-.856C421.643,672.125,424.2,672.177,426.744,672.147Z" fill="#ba9bc9"/><path d="M403.353,781.092c-4.062-.747-8.09-1.673-12.092-2.618-2-.491-4-.952-5.968-1.527q-2.948-.909-5.863-1.885t-5.788-2.026c-1.913-.708-3.824-1.39-5.678-2.26q-5.59-2.5-10.957-5.332a53.111,53.111,0,0,1-7.583-5.126,19.377,19.377,0,0,1-3.253-3.235c-2.7-3.325-2.388-6.412.713-8.956a23.364,23.364,0,0,1,3.764-2.492,100.524,100.524,0,0,0,10.507-6.539,121.375,121.375,0,0,0,9.547-7.671,76.177,76.177,0,0,1,6.288-4.9,5.635,5.635,0,0,1,3.127-1.395,6.957,6.957,0,0,1,3.211,1.315,71.64,71.64,0,0,0,7.252,3.872q1.875.87,3.8,1.65c1.284.528,2.611.9,3.938,1.319a52.356,52.356,0,0,0,10.123,1.9,91.957,91.957,0,0,0,10.275,0l6.146-.255c2.053-.166,4.1-.308,6.142-.392a25.325,25.325,0,0,1,5.52.365,25.587,25.587,0,0,1,2.608.608c.855.236,1.7.461,2.528.756a35.685,35.685,0,0,1,9.479,5.2,8.152,8.152,0,0,1,2.241,2.525,26.434,26.434,0,0,1,3.58,10.755,17.674,17.674,0,0,1-2.934,11.038,31.517,31.517,0,0,1-12.16,10.671,48.912,48.912,0,0,1-14.368,4.818,71.037,71.037,0,0,1-7.715,1c-2.611.093-5.264.048-7.948-.116C409,781.983,406.18,781.462,403.353,781.092Z" fill="#ba9bc9"/><path d="M346.789,715.017c1.344-3.037,2.818-4.97,5.079-5.883,1.32-.532,2.665-.988,4.016-1.4l2.028-.6,2.05-.646c1.539-.485,2.747.35,3.737,1.47l5.134,5.749c.863.984,1.753,1.9,2.654,2.81l2.713,2.76c1.255,1.274,1.243,2.341-.068,3.451q-3.9,3.3-7.967,6.551c-2.7,2.13-5.433,4.139-8.247,6.167a68.081,68.081,0,0,1-6.218,3.909c-2.145,1.21-3.644.586-4.368-1.718a9.089,9.089,0,0,1-.388-2.037c-.4-5-.785-9.964-.835-14.893A36.526,36.526,0,0,1,346.789,715.017Z" fill="#ba9bc9"/><path d="M384.967,675.232l-2.226.972c-4.167,1.7-8.478,3.043-12.784,4.923a27.543,27.543,0,0,0-3.6,1.944,40.062,40.062,0,0,0-3.383,2.364,11.119,11.119,0,0,0-4.319,11.826,14.457,14.457,0,0,1,.324,1.734c.139,1.6-.293,2.407-1.743,2.947a22.138,22.138,0,0,1-3.347.939c-2.263.454-3.67-.391-4.337-2.658a16.61,16.61,0,0,1-.566-6.808,20.516,20.516,0,0,1,2.09-6.617,19.561,19.561,0,0,1,9.578-9.07,33.115,33.115,0,0,1,6.2-2.169c1.035-.252,2.063-.428,3.1-.583a31.426,31.426,0,0,1,3.151-.395c3.575-.293,7.054-.073,10.552-.2a5.253,5.253,0,0,1,1.243.22Z" fill="#ba9bc9"/><path d="M342.308,740.391a20.157,20.157,0,0,1-2.659-1.458,50.452,50.452,0,0,1-4.9-4.32c-.753-.765-1.468-1.556-2.137-2.378a28.123,28.123,0,0,1-1.819-2.673c-4.009-6.669-3.292-13.155,1.492-18.619a32.121,32.121,0,0,1,9.321-6.95c1.1-.6,2.2-.815,3.241.21a2.972,2.972,0,0,1,.473,3.911c-4,5.031-4.372,10.859-4,16.9.277,4.68.765,9.39,1.262,14.13A6.012,6.012,0,0,1,342.308,740.391Z" fill="#ba9bc9"/><path d="M728.883,563.505a33.059,33.059,0,0,0,8.211,3.535c4.988,1.7,9.961,3.47,14.176,6.723a27.533,27.533,0,0,1,8.29,10.313,30.967,30.967,0,0,1,2.18,6.605,36.057,36.057,0,0,1,.629,7.448,52.526,52.526,0,0,1-2.742,16.831,54.691,54.691,0,0,1-8.117,15.679,26.1,26.1,0,0,1-7.027,6.836c-4,2.418-7.424,1.841-9.793-1.359a12.774,12.774,0,0,1-1.359-2.2c-1.669-3.62-3.556-7.262-5.4-10.838l-5.5-10.69A48.064,48.064,0,0,1,717.82,585.4a3.392,3.392,0,0,0-.34-1.912c-.338.567-.7,1.122-1.011,1.7l-6,9.925-1.5,2.475L707.351,600l-3.254,4.79A55.739,55.739,0,0,0,696.8,620.4c-.172.6-.3,1.215-.513,1.806a2.664,2.664,0,0,1-2.435,2.151,2.586,2.586,0,0,1-2.832-1.752,17.34,17.34,0,0,1-.724-4.531,35.478,35.478,0,0,1,.84-7.863c.277-1.273.616-2.529,1-3.772s.841-2.464,1.249-3.73a45.8,45.8,0,0,1,3.332-7.358c.649-1.171,1.337-2.321,2.048-3.458l2.038-3.479c.959-1.607,1.87-3.243,2.919-5.067a7.931,7.931,0,0,0-1.365.46,45.616,45.616,0,0,1-6.426,3.03c-1.086.409-2.172.774-3.274,1.087q-1.7.441-3.409.746a45.985,45.985,0,0,1-13.817.323c-2.389-.3-4.738-.637-7.115-1.048q-3.594-.635-7.137-1.393c-4.725-1.006-9.386-2.154-13.983-3.385-4.92-1.324-7.024-4.257-7.417-8.811a21.326,21.326,0,0,1,.018-3.817q.089-.937.259-1.854c.1-.619.2-1.249.339-1.86a21.568,21.568,0,0,1,2.812-6.851q.493-.781,1.054-1.522c.341-.511.7-1.009,1.087-1.489a21.1,21.1,0,0,1,2.554-2.678,21.443,21.443,0,0,1,3.033-2.224,32.288,32.288,0,0,1,3.4-1.743c6.264-2.686,13.446-2.67,20.965-.483,4.191,1.218,8.281,2.832,12.385,4.386,4.581,1.729,9.078,3.712,13.685,5.374,4.637,1.667,9.366,2.838,14.382,1.676a3.069,3.069,0,0,0,2.351-1.688,79.248,79.248,0,0,0,5.368-13.24q.53-1.7.982-3.413c.3-1.142.481-2.326.68-3.5a59.23,59.23,0,0,0,.7-7.115c.048-1.332.049-2.651-.013-3.952a29.6,29.6,0,0,0-.546-3.891,25.78,25.78,0,0,0-2.633-7.331,19.352,19.352,0,0,0-3.826-5.016,15.033,15.033,0,0,0-5.588-3.206,12.134,12.134,0,0,0-6.084-.489,11.639,11.639,0,0,0-5.332,2.608,19.28,19.28,0,0,0-5.223,7.209,42.7,42.7,0,0,0-3.189,8.342,33.653,33.653,0,0,0-.78,4.387,26.864,26.864,0,0,0-.287,4.537,33,33,0,0,0,.962,6.726,14.033,14.033,0,0,0,1.827,3.956c1.146,1.818,2.358,2.086,4.244.988,3.2-1.99,5.013-5.08,6.254-8.549a38.612,38.612,0,0,1,1.7-3.954,2.846,2.846,0,0,1,3.524-1.494c1.248.37,1.923,1.2,1.772,2.933a20.877,20.877,0,0,1-.815,4.4,22.161,22.161,0,0,1-1.576,4.047,17.584,17.584,0,0,1-2.411,3.573,16.465,16.465,0,0,1-1.565,1.56,16.846,16.846,0,0,1-1.92,1.346c-5.992,3.645-12.493,1.347-15.687-4.677a24.412,24.412,0,0,1-2.7-11.051,34.807,34.807,0,0,1,.57-6.246,36.512,36.512,0,0,1,1.383-5.895,31.37,31.37,0,0,1,2.47-5.526,42.213,42.213,0,0,1,3.315-5.307,26.624,26.624,0,0,1,4.708-4.729c8.531-7.238,21.226-5.287,27.309-.283a29.78,29.78,0,0,1,4.387,4.424,27.011,27.011,0,0,1,3.357,5.267,40.881,40.881,0,0,1,3.912,13.955,45.572,45.572,0,0,1-1.611,14.721c-.781,2.647-1.789,5.226-2.777,7.813-1.026,2.572-1.98,5.178-3.078,7.719Z" fill="#a9c9a4"/><path d="M616.05,607.7a51.538,51.538,0,0,1,4.565-3.629,33.627,33.627,0,0,1,5.181-2.864c.592-.268,1.2-.5,1.791-.739s1.162-.471,1.75-.675a28.45,28.45,0,0,1,3.588-.987,32.545,32.545,0,0,1,7.521-.623,49.962,49.962,0,0,1,16,3.23,49.4,49.4,0,0,1,13.855,7.2,45.309,45.309,0,0,1,12.885,15.443c.966,1.923.844,2.346-1.063,3.517a15.54,15.54,0,0,1-2.28,1.211,34.126,34.126,0,0,0-11.367,6.786q-.6.542-1.169,1.112c-.4.366-.791.736-1.174,1.118q-1.154,1.145-2.217,2.4a46.066,46.066,0,0,0-3.953,5.457,67.181,67.181,0,0,1-4.156,5.913q-2.2,2.883-4.534,5.681a34.387,34.387,0,0,1-4.673,4.583,53.649,53.649,0,0,1-5.2,3.838c-.9.58-1.8,1.155-2.753,1.664s-1.932.963-2.915,1.407c-1.967.888-3.978,1.677-6.016,2.377a61.559,61.559,0,0,1-12.145,2.868q-3.06.439-6.1.635a56.644,56.644,0,0,1-6.166-.035,39.448,39.448,0,0,1-9.015-1.53c-4.065-1.195-5.484-3.661-5.472-7.955a31.8,31.8,0,0,1,1.754-9.5c1.588-4.822,3.175-9.7,5.023-14.211q.69-1.7,1.414-3.353c.488-1.1.917-2.271,1.394-3.381q1.405-3.366,2.926-6.573c1.238-2.482,2.347-5.1,3.65-7.5.648-1.208,1.33-2.381,2.059-3.513s1.516-2.212,2.278-3.338C612.8,611.635,614.466,609.7,616.05,607.7Z" fill="#ba9bc9"/><path d="M686.5,693.94,684.2,696c-.788.664-1.6,1.3-2.4,1.951q-2.412,1.933-4.853,3.815t-4.914,3.7c-1.642,1.221-3.4,2.3-5.106,3.417-3.454,2.2-6.914,4.344-10.481,6.285q-5.44,2.793-11,5.209a51.338,51.338,0,0,1-8.715,2.745,19.327,19.327,0,0,1-4.556.521c-4.283.034-6.5-2.135-6.563-6.14a23.291,23.291,0,0,1,.4-4.492,100.518,100.518,0,0,0,1.432-12.277c.192-4.1.125-8.217-.062-12.257a75.71,75.71,0,0,1,.09-7.961c.185-3.244.822-3.908,3.87-5.029a71.909,71.909,0,0,0,7.57-3.226c1.225-.623,2.484-1.226,3.648-1.958s2.332-1.479,3.48-2.262a47.091,47.091,0,0,0,7.811-6.71c2.285-2.555,4.385-5.269,6.431-8.006l1.836-2.469,1.743-2.549c1.169-1.692,2.352-3.363,3.579-5a29.448,29.448,0,0,1,3.75-4.065,25.666,25.666,0,0,1,4.217-3.211,31.232,31.232,0,0,1,4.791-2.375c1.677-.678,3.481-1.206,5.243-1.742a7.783,7.783,0,0,1,3.316-.221c8.02,1.346,14.563,4.724,17.417,13.08a29.242,29.242,0,0,1,1.52,7.921,34.944,34.944,0,0,1-.743,8.283,49.166,49.166,0,0,1-5.194,14.257,71.146,71.146,0,0,1-4.088,6.6c-.756,1.07-1.515,2.157-2.357,3.178s-1.728,2.017-2.636,3.006C690.748,690.115,688.566,691.979,686.5,693.94Z" fill="#ba9bc9"/><path d="M599.649,696.963c-1.54-2.943-2.135-5.3-1.441-7.634.8-2.743,1.961-5.288,2.962-7.993.581-1.5,1.989-1.927,3.483-2l7.7-.424c2.573-.185,5.1-.486,7.694-.739,1.781-.184,2.608.491,2.658,2.206q.144,5.1.149,10.3c.019,3.493-.139,6.838-.3,10.311a68.165,68.165,0,0,1-.817,7.29c-.39,2.429-1.812,3.209-4.067,2.337a9.363,9.363,0,0,1-1.824-.947c-4.156-2.8-8.286-5.595-12.175-8.627A36.43,36.43,0,0,1,599.649,696.963Z" fill="#ba9bc9"/><path d="M592.308,642.3l-.633,2.343-.466,1.656-.527,1.6-1.08,3.217c-.722,2.159-1.432,4.352-2.047,6.612a24.807,24.807,0,0,0-.713,4.038,40.051,40.051,0,0,0-.26,4.118,11.115,11.115,0,0,0,6.566,10.743,14.783,14.783,0,0,1,1.559.827c1.34.889,1.7,1.729,1.22,3.2a22.091,22.091,0,0,1-1.352,3.2c-1.054,2.051-2.593,2.624-4.784,1.733a17.837,17.837,0,0,1-9.555-9.54,19.5,19.5,0,0,1-1.135-13.15,36.32,36.32,0,0,1,5.3-11.715c1.011-1.477,2.091-2.878,3.188-4.25s2.235-2.677,3.235-4.148a5.277,5.277,0,0,1,.951-.832Z" fill="#ba9bc9"/><path d="M616.716,716.274a20.053,20.053,0,0,1-2.8,1.169,50.464,50.464,0,0,1-6.435,1.141c-1.068.111-2.132.177-3.192.188a24.213,24.213,0,0,1-3.217-.229c-7.718-1.019-12.348-5.62-13.646-12.763a32.055,32.055,0,0,1,.364-11.616,2.5,2.5,0,0,1,2.176-2.416,2.976,2.976,0,0,1,3.357,2.067c1.449,6.255,5.777,10.182,10.736,13.656,3.836,2.7,7.826,5.253,11.845,7.818C616.107,715.416,616.218,715.659,616.716,716.274Z" fill="#ba9bc9"/><path d="M719.423,303.783a33.091,33.091,0,0,0,7.878-4.226c4.435-2.847,8.917-5.636,14.085-6.91a27.52,27.52,0,0,1,13.227-.069,31,31,0,0,1,6.521,2.405,34.963,34.963,0,0,1,6.229,4.142,61.611,61.611,0,0,1,6.237,5.845c.961,1.053,1.938,2.12,2.788,3.261s1.667,2.316,2.445,3.525a63.547,63.547,0,0,1,4.2,7.655,42.679,42.679,0,0,1,1.705,4.125q.721,2.133,1.315,4.355a26.2,26.2,0,0,1,.961,9.775,8.136,8.136,0,0,1-2.294,5.2,6.482,6.482,0,0,1-4.845,1.614,12.682,12.682,0,0,1-2.565-.311c-7.877-1.863-15.872-3.254-23.646-4.894a42.883,42.883,0,0,1-6.632-1.952,48.024,48.024,0,0,1-17.369-11.247,3.38,3.38,0,0,0-1.706-.924c.232.617.443,1.243.7,1.85,2.7,7.252,5.511,14.454,7.633,21.887a43.117,43.117,0,0,0,1.483,4.09q.418,1,.885,1.968c.281.657.572,1.309.882,1.952a51.026,51.026,0,0,0,4.41,7.431c.361.51.758,1,1.088,1.53.637,1.052,1.023,2.142.2,3.236a2.588,2.588,0,0,1-3.137,1.122,17.626,17.626,0,0,1-4.033-2.249,35.349,35.349,0,0,1-5.606-5.564,75.694,75.694,0,0,1-4.476-6.435,45.663,45.663,0,0,1-3.665-7.194c-.513-1.237-.97-2.5-1.431-3.756-.507-1.244-.989-2.5-1.461-3.758-.658-1.752-1.369-3.485-2.141-5.441a7.966,7.966,0,0,0-.491,1.355,45.527,45.527,0,0,1-1.637,6.917q-.533,1.656-1.189,3.239c-.439,1.056-.981,2.11-1.526,3.126a46.038,46.038,0,0,1-8.37,11.012q-2.579,2.52-5.245,4.908c-1.79,1.6-3.668,3.176-5.529,4.708-3.739,3.068-7.548,6-11.382,8.821-4.111,3.021-7.711,2.839-11.5.313a23.934,23.934,0,0,1-9.1-11.608c-.373-1.173-.757-2.343-1.034-3.539a20.963,20.963,0,0,1-.5-3.663,21.334,21.334,0,0,1,.155-3.754q.121-.945.329-1.89c.114-.62.247-1.235.417-1.851,1.8-6.575,6.293-12.188,12.681-16.71,3.543-2.513,7.367-4.717,11.133-6.96,4.205-2.509,8.557-4.8,12.725-7.367,4.192-2.592,8.052-5.566,10.268-10.216a3.07,3.07,0,0,0,.144-2.892c-4.04-8.679-9.163-16.836-16.513-23.031a39.4,39.4,0,0,0-3.107-2.448,35.462,35.462,0,0,0-3.39-1.993,25.664,25.664,0,0,0-7.359-2.522,16.23,16.23,0,0,0-12.324,2.25,11.279,11.279,0,0,0-5.431,10.232,19.371,19.371,0,0,0,2.366,8.6c.728,1.319,1.339,2.706,2.1,3.984a35.079,35.079,0,0,0,2.451,3.709A29.677,29.677,0,0,0,671.4,311.9a27.449,27.449,0,0,0,3.371,3.052,32.951,32.951,0,0,0,5.856,3.443,13.854,13.854,0,0,0,4.245,1.029c2.134.235,3.1-.547,3.414-2.707.415-3.736-.855-7.089-2.8-10.221a42.043,42.043,0,0,1-2.049-3.786,2.854,2.854,0,0,1,1.029-3.692c1.068-.747,2.137-.756,3.395.443.553.527,1.091,1.065,1.6,1.62.478.571.933,1.156,1.359,1.754a22.278,22.278,0,0,1,2.18,3.757,17.6,17.6,0,0,1,1.29,4.115,13.887,13.887,0,0,1,.115,4.532c-.882,6.962-6.728,10.621-13.427,9.368a23.235,23.235,0,0,1-5.528-1.8,22.385,22.385,0,0,1-4.8-2.969,34.734,34.734,0,0,1-4.528-4.344,33.1,33.1,0,0,1-3.762-4.756,31.438,31.438,0,0,1-2.777-5.389,36.026,36.026,0,0,1-2.1-5.9,26.727,26.727,0,0,1-.752-6.648c-.4-11.16,9.112-19.911,16.786-21.52a29.947,29.947,0,0,1,12.421-.022,40.759,40.759,0,0,1,13.32,5.657,44.163,44.163,0,0,1,10.514,10.422c1.619,2.238,2.979,4.65,4.394,7.03,1.376,2.4,2.8,4.784,4.127,7.21C718.645,302.267,719,302.964,719.423,303.783Z" fill="#a9c9a4"/><path d="M683.693,419.481a31.933,31.933,0,0,1,1.016-11.655,30.145,30.145,0,0,1,6.771-13.311,48.749,48.749,0,0,1,12.479-10.471,49.589,49.589,0,0,1,14.279-6.344,45.145,45.145,0,0,1,20.089-.44c2.1.446,2.354.806,2.071,3.029a15.581,15.581,0,0,1-.486,2.541c-2.948,8.978-2.084,17.311.771,26.064a90.73,90.73,0,0,1,3.619,14.027,39.691,39.691,0,0,1,.761,6.5,54.085,54.085,0,0,1-.34,6.461,60.118,60.118,0,0,1-1.065,6.345,48.292,48.292,0,0,1-1.943,6.182q-1.111,2.964-2.408,5.792a47.95,47.95,0,0,1-2.866,5.494,77.127,77.127,0,0,1-7.2,9.97,27.649,27.649,0,0,1-3.227,3.261,40.249,40.249,0,0,1-3.649,2.827c-3.539,2.426-6.352,2-9.645-.68a23.808,23.808,0,0,1-3.414-3.45c-.5-.614-.976-1.244-1.431-1.884l-1.406-1.948A147.549,147.549,0,0,1,698.5,455q-1.906-3.208-3.59-6.412-.843-1.6-1.636-3.2c-.526-1.067-1.029-2.133-1.618-3.2-1.332-2.521-2.564-5.027-3.6-7.554-.535-1.262-.947-2.536-1.431-3.81s-.913-2.559-1.267-3.861C684.678,424.478,684.268,421.96,683.693,419.481Z" fill="#ba9bc9"/><path d="M794.967,418.311q.153,3.09.254,6.175c.1,2.055-.028,4.112-.062,6.163q-.186,6.153-.644,12.252c-.437,4.061-1.057,8.095-1.751,12.088-.355,2-.727,3.982-1.154,5.955q-.749,2.958-1.593,5.876a73.737,73.737,0,0,1-3.224,8.525,16.147,16.147,0,0,1-1.061,2.034,22.632,22.632,0,0,1-1.36,1.852c-2.716,3.362-5.813,3.746-8.939,1.3a22.692,22.692,0,0,1-3.209-3.1,112.842,112.842,0,0,0-18.349-16.364c-1.065-.777-2.1-1.595-3.115-2.438-1.05-.844-2.077-1.714-3.082-2.595-2.478-2.168-2.672-3.084-1.563-6.162q.7-1.941,1.281-3.923a34.3,34.3,0,0,0,.984-4c.5-2.692.866-5.43,1.115-8.2a46.562,46.562,0,0,0,.167-5.178c-.091-1.714-.318-3.415-.577-5.107-.531-3.383-1.3-6.721-2.126-10.031-1.185-3.959-2.4-7.884-3.386-11.844-.236-.928-.4-1.85-.541-2.76a25.087,25.087,0,0,1-.354-2.7,25.885,25.885,0,0,1,.154-5.306,43.083,43.083,0,0,1,3.024-10.408,7.831,7.831,0,0,1,1.9-2.733c6.07-5.435,12.8-8.447,21.09-5.457a29.8,29.8,0,0,1,7.138,3.761,31.466,31.466,0,0,1,6.031,5.752,55.662,55.662,0,0,1,4.417,6.18,42.8,42.8,0,0,1,3.5,6.792,71.757,71.757,0,0,1,4.34,15.09C794.687,412.6,794.753,415.472,794.967,418.311Z" fill="#ba9bc9"/><path d="M743.274,488.043c-3.253-.628-5.49-1.634-6.925-3.64a79.26,79.26,0,0,1-4.468-7.308c-.783-1.388-.2-2.748.7-3.96,2.961-4.135,5.745-8.406,8.668-12.77,1-1.5,2.048-1.73,3.4-.7,5.361,4.084,10.715,8.38,15.993,12.961.924.8,1.824,1.642,2.707,2.51.85.866,1.676,1.76,2.491,2.671,1.622,1.814,1.312,3.409-.807,4.625a9.82,9.82,0,0,1-1.9.834c-4.736,1.509-9.444,3.006-14.2,4.163A35.65,35.65,0,0,1,743.274,488.043Z" fill="#ba9bc9"/><path d="M695.859,459.691l1.392,1.953c2.605,3.694,5.114,7.628,7.7,11.385a31.091,31.091,0,0,0,5.763,5.845,11.1,11.1,0,0,0,12.489,1.561,14,14,0,0,1,1.6-.707,2.428,2.428,0,0,1,3.276,1.041,22.908,22.908,0,0,1,1.732,3.063c1.032,2.115.444,3.663-1.653,4.815a18.182,18.182,0,0,1-13.5,1.512,18.894,18.894,0,0,1-10.855-7.284,33.618,33.618,0,0,1-5.91-11.457q-1.3-5.124-2.616-10.268a5.252,5.252,0,0,1-.026-1.261Z" fill="#ba9bc9"/><path d="M768.9,486.716a19.984,19.984,0,0,1-.763,2.925,35.944,35.944,0,0,1-3.167,5.735,31.682,31.682,0,0,1-4.057,4.983,14.573,14.573,0,0,1-18.373,2.738,33.241,33.241,0,0,1-8.963-7.545c-.834-.94-1.347-1.973-.566-3.214a3.058,3.058,0,0,1,3.757-1.329c5.751,2.758,11.567,1.829,17.437.125l3.41-1.018,3.335-1.09,6.679-2.29A6.011,6.011,0,0,1,768.9,486.716Z" fill="#ba9bc9"/><path d="M510.473,149.266a33.094,33.094,0,0,0,1.6-8.793c.536-5.233,1.147-10.47,3.377-15.331a29.017,29.017,0,0,1,3.49-5.762,25.306,25.306,0,0,1,4.71-4.676,34.026,34.026,0,0,1,13.067-5.853q2.1-.488,4.221-.831c1.4-.181,2.814-.3,4.232-.383a61.452,61.452,0,0,1,8.574.135q2.157.184,4.32.52a43.915,43.915,0,0,1,4.284.966,67.683,67.683,0,0,1,8.519,2.918,30.268,30.268,0,0,1,4.45,2.252,22,22,0,0,1,3.775,3.127c3.241,3.4,3.48,6.78.872,9.841a12.9,12.9,0,0,1-1.849,1.83c-6.373,5.01-12.352,10.152-18.54,15.369a43.548,43.548,0,0,1-11.8,7.063c-1.054.428-2.114.782-3.209,1.157s-2.21.722-3.338,1.024a51.81,51.81,0,0,1-6.958,1.357,3.248,3.248,0,0,0-1.776.718c.623.22,1.239.463,1.869.658l5.541,1.715,2.768.857c.919.3,1.821.651,2.731.974l10.877,3.992a46.235,46.235,0,0,0,8.248,2.564q2.1.44,4.258.691,1.077.127,2.168.211c.718.079,1.435.156,2.16.213.617.05,1.239.058,1.855.146a2.782,2.782,0,0,1,2.636,1.909,2.578,2.578,0,0,1-1.076,3.147,15.587,15.587,0,0,1-4.256,1.712,32.629,32.629,0,0,1-3.895.6c-1.3.121-2.624.253-3.93.275a49.24,49.24,0,0,1-7.84-.471c-1.35-.174-2.662-.45-3.977-.729-1.325-.249-2.631-.555-3.926-.9-2.589-.7-5.131-1.559-7.667-2.464-1.75-.671-3.582-1.084-5.6-1.679a7.725,7.725,0,0,0,.76,1.207q1.24,1.313,2.346,2.683c.726.95,1.4,1.933,2.035,2.922a44.008,44.008,0,0,1,3.271,6.134,42.853,42.853,0,0,1,3.413,13.348,218.051,218.051,0,0,1,.619,28.788,10.1,10.1,0,0,1-1.92,6,7.969,7.969,0,0,1-2.113,1.86,13.388,13.388,0,0,1-2.9,1.348,24.152,24.152,0,0,1-14.776-.053,21.377,21.377,0,0,1-3.4-1.437c-1.093-.573-2.131-1.28-3.155-1.946a20.952,20.952,0,0,1-5.321-5.3,27.944,27.944,0,0,1-2.535-4.505,27.044,27.044,0,0,1-1.706-4.826,36.208,36.208,0,0,1-.927-10.948c.249-4.36.911-8.732,1.507-13.087.662-4.863,1.587-9.695,2.178-14.57s.686-9.856-1.573-14.469a2.986,2.986,0,0,0-2.181-1.859c-9.311-2.239-18.881-3.31-28.3-1.441a40.492,40.492,0,0,0-7.526,2.324,22.2,22.2,0,0,0-6.558,4.158c-3.271,2.99-5.543,6.521-5.934,11.1a11.07,11.07,0,0,0,4.62,10.581,22.464,22.464,0,0,0,8.2,3.578c1.48.328,2.958.59,4.437.767q1.11.133,2.22.2c.738.066,1.472.143,2.21.175a28.079,28.079,0,0,0,8.949-.962,44.686,44.686,0,0,0,6.332-2.381,12.445,12.445,0,0,0,3.442-2.634c1.521-1.553,1.509-2.788.009-4.339a14.478,14.478,0,0,0-9.723-4.248,24.468,24.468,0,0,1-4.243-.731,2.943,2.943,0,0,1-2.238-3.17c.081-1.3.74-2.13,2.456-2.326a26.24,26.24,0,0,1,8.794.315,17.069,17.069,0,0,1,7.617,4.418c4.92,4.9,4.141,11.727-1.034,16.291a21.365,21.365,0,0,1-10.159,5.026,33.279,33.279,0,0,1-12.29.822,34.429,34.429,0,0,1-11.884-3.21c-.985-.485-1.96-.968-2.911-1.54a31.269,31.269,0,0,1-2.769-1.885c-8.984-6.812-9.883-19.729-6.353-26.663a29.679,29.679,0,0,1,7.73-9.609,38.238,38.238,0,0,1,6.075-4.16,40.423,40.423,0,0,1,6.648-2.735,44.331,44.331,0,0,1,7.155-1.587,41.953,41.953,0,0,1,7.543-.14c2.755.169,5.508.468,8.256.8l8.189,1.409Z" fill="#a9c9a4"/><path d="M578.638,249.377a32.321,32.321,0,0,1-4.49-3.733,32.878,32.878,0,0,1-3.99-4.315,29.088,29.088,0,0,1-2.142-3.17c-.638-1.092-1.193-2.238-1.727-3.327a31.47,31.47,0,0,1-2.319-7.1,51.988,51.988,0,0,1-.361-16.386,48.943,48.943,0,0,1,3.911-15.061,45.772,45.772,0,0,1,12.219-16.067c1.671-1.391,2.114-1.373,3.645.3a16.117,16.117,0,0,1,1.656,2.02,34.7,34.7,0,0,0,4.258,5.282,32.106,32.106,0,0,0,2.4,2.2c.813.717,1.641,1.415,2.507,2.056a36.549,36.549,0,0,0,5.541,3.4c1.961.991,4.075,1.787,6.2,2.646q3.357,1.281,6.69,2.741a66.208,66.208,0,0,1,6.536,3.174,49.743,49.743,0,0,1,5.511,3.534q1.308.965,2.545,2c.412.347.822.694,1.219,1.057l1.141,1.147a62.723,62.723,0,0,1,7.927,10.155,85.211,85.211,0,0,1,5.475,11.226,48.287,48.287,0,0,1,1.912,5.872q.805,2.985,1.36,5.994a34.2,34.2,0,0,1,.51,9.125c-.332,4.3-2.423,6.228-6.556,7.112a26.006,26.006,0,0,1-4.829.513,47.741,47.741,0,0,1-4.812-.131c-5.187-.344-10.034-1.093-14.978-1.753q-3.659-.55-7.172-1.273c-1.157-.258-2.364-.454-3.554-.671s-2.366-.448-3.534-.689c-1.382-.285-2.745-.587-4.085-.919s-2.642-.717-4-1.035a44.978,44.978,0,0,1-7.67-2.665c-.581-.268-1.153-.549-1.721-.838l-1.747-.8Z" fill="#ba9bc9"/><path d="M647.154,161.53q4.963,3.705,9.771,7.566c1.621,1.259,3.123,2.669,4.645,4.044s3.01,2.783,4.484,4.2,2.928,2.845,4.356,4.293q2.066,2.264,4.056,4.577t3.9,4.676c1.261,1.586,2.541,3.136,3.67,4.831a74.139,74.139,0,0,1,4.588,7.905,19.009,19.009,0,0,1,1.554,4.285c.987,4.161-.707,6.879-4.54,7.766a26.19,26.19,0,0,1-4.464.611,102.309,102.309,0,0,0-12.367,1.407q-3.016.525-5.966,1.193l-2.937.694-2.957.805a77.107,77.107,0,0,1-7.83,1.728c-3.223.559-4.05.13-5.735-2.693a32.779,32.779,0,0,0-2.3-3.41q-1.226-1.642-2.549-3.224a80.989,80.989,0,0,0-5.64-6.091,59.4,59.4,0,0,0-17.561-10.552l-5.659-2.426-1.4-.616-1.433-.567q-1.43-.573-2.841-1.176a26.958,26.958,0,0,1-8.84-6.2,35.653,35.653,0,0,1-6.286-8.794,8.13,8.13,0,0,1-.924-3.246,26.5,26.5,0,0,1,1.446-11.249,17.608,17.608,0,0,1,7.441-8.659,31.593,31.593,0,0,1,15.626-4.325q1.911-.06,3.824.012,1.877.132,3.753.394a61.5,61.5,0,0,1,7.477,1.527,49.871,49.871,0,0,1,7.361,2.509q3.6,1.565,7.128,3.529c1.242.688,2.445,1.454,3.635,2.242l1.781,1.189Z" fill="#ba9bc9"/><path d="M669.357,245.539c-2.529,2.156-4.7,3.266-7.155,3.126a77.917,77.917,0,0,1-8.456-1.113c-1.56-.267-2.25-1.582-2.688-2.989l-2.195-7.341-1.138-3.72c-.377-1.253-.771-2.5-1.212-3.7-.589-1.678-.117-2.632,1.554-3.071,1.651-.428,3.337-.874,4.989-1.262l4.974-1.116q5.005-1.083,10.138-2.012a69.384,69.384,0,0,1,7.336-.869c2.463-.168,3.475,1.109,3.1,3.521a9.929,9.929,0,0,1-.54,2.008c-1.79,4.652-3.573,9.276-5.647,13.721A36.079,36.079,0,0,1,669.357,245.539Z" fill="#ba9bc9"/><path d="M617.673,264.8l2.378.151c2.242.149,4.5.37,6.791.573l3.457.28,1.749.109,1.714.127a30.623,30.623,0,0,0,8.131-.817,11.1,11.1,0,0,0,9.018-8.782,14.217,14.217,0,0,1,.449-1.694c.561-1.5,1.3-2.037,2.856-1.906a22.63,22.63,0,0,1,3.455.577c2.242.566,3.213,1.875,2.778,4.256a18.27,18.27,0,0,1-7.263,11.511,19.032,19.032,0,0,1-12.477,3.938,32.041,32.041,0,0,1-12.611-2.578c-3.333-1.314-6.5-2.9-9.664-4.363a5.152,5.152,0,0,1-.99-.779Z" fill="#ba9bc9"/><path d="M684.347,224.666a20.041,20.041,0,0,1,1.791,2.437,33.952,33.952,0,0,1,3.88,12.307c.791,7.686-2.639,13.2-9.34,16.076a32.717,32.717,0,0,1-11.476,2.286c-1.251.061-2.375-.186-2.851-1.577a3.081,3.081,0,0,1,1.317-3.773c5.725-2.755,8.672-7.919,10.97-13.533,1.76-4.318,3.342-8.752,4.93-13.217C683.647,225.449,683.859,225.287,684.347,224.666Z" fill="#ba9bc9"/></svg>